# xmcd
#
# Track frame offsets:
#	182
#	14537
#	29937
#	47030
#	64675
#	81987
#	96567
#	117467
#	134730
#	148060
#	163657
#	179062
#	198792
#	211850
#	223500
#	238105
#
# Disc length: 3326 seconds
#
# Revision: 1
# Processed by: cddbd v1.4PL0 Copyright (c) Steve Scherf et al.
# Submitted via: audiograbber 1.81.03
#
DISCID=010cfc10
DTITLE=Gino Marinello Orchestra - Mystic Nights
DYEAR=1900
DGENRE=Opera
TTITLE0=If U Don't Know Me By Now
TTITLE1=Reunited
TTITLE2=Love Don't Live Here Anymore
TTITLE3=Love Hurts
TTITLE4=Sorry Seems 2 B The Hardest Word
TTITLE5=I Close My Eyes and Count 2 10
TTITLE6=Miss U Nights
TTITLE7=Release Me
TTITLE8=Without Love (There Is Nothing)
TTITLE9=Yesterday When I Was Young
TTITLE10=Even Now
TTITLE11=Am I Losing U Forever
TTITLE12=I 'm Your Puppet
TTITLE13=I (Who Have Nothing)
TTITLE14=Hurts 2 B In Love
TTITLE15=If U Go
EXTD=
EXTT0=
EXTT1=
EXTT2=
EXTT3=
EXTT4=
EXTT5=
EXTT6=
EXTT7=
EXTT8=
EXTT9=
EXTT10=
EXTT11=
EXTT12=
EXTT13=
EXTT14=
EXTT15=
PLAYORDER=
